<?xml version="1.0" encoding="UTF-8"?>
<svg id="Layer_2" data-name="Layer 2" xmlns="http://www.w3.org/2000/svg" viewBox="0 0 292.48 160.43">
  <defs>
    <style>
      .cls-1 {
        fill: #1e264b;
      }
    </style>
  </defs>
  <g id="Layer_1-2" data-name="Layer 1">
    <g>
      <path class="cls-1" d="m82.68,80.93c-1.59,1.72-3.11,3.47-4.73,5.12-3.43,3.5-6.91,6.95-10.37,10.42-3.81,3.82-7.62,7.65-11.45,11.45-.47.47-.2.67.11.99,3.55,3.56,7.1,7.12,10.65,10.68,4.95,4.97,9.91,9.95,14.86,14.92.41.41.77.85,1.29,1.43-.44.06-.7.13-.96.13-6.52.02-13.05-.01-19.57.08-1.65.02-2.86-.57-3.96-1.68-5.76-5.81-11.54-11.6-17.31-17.4-2.63-2.65-5.24-5.33-7.88-7.97-.47-.48-.56-.81-.03-1.33,2.84-2.79,5.66-5.6,8.47-8.42,2.13-2.14,4.23-4.32,6.37-6.46,1.29-1.29,2.65-2.5,3.94-3.8,2.01-2.03,4.02-4.05,5.94-6.17,1.27-1.4,2.6-2.19,4.61-2.15,6.11.13,12.21.05,18.32.06.64,0,1.27.08,1.72.11Z"/>
      <path class="cls-1" d="m0,24.44c1.03,0,1.78,0,2.52,0,6.23,0,12.46.03,18.7,0,.91,0,1.57.26,2.2.89,4.65,4.63,9.32,9.24,13.97,13.86,4.13,4.09,8.24,8.2,12.39,12.28.58.57.48.93-.02,1.42-2.84,2.74-5.66,5.49-8.49,8.25-1.33,1.3-2.64,2.63-3.97,3.94-1.97,1.95-3.97,3.88-5.92,5.85-2.37,2.38-4.73,4.78-7.05,7.21-1.1,1.15-2.29,1.66-3.95,1.63-6.23-.11-12.46-.06-18.69-.07-.43,0-.87-.06-1.37-.1.11-.27.13-.41.2-.49,2.45-2.42,4.92-4.82,7.35-7.26,3.3-3.32,6.57-6.69,9.86-10.02,2.92-2.95,5.86-5.88,8.78-8.84.82-.83.78-.85-.02-1.66-3.3-3.33-6.57-6.7-9.9-10-3.71-3.69-7.48-7.31-11.2-11-1.62-1.61-3.16-3.29-4.73-4.94-.19-.2-.32-.45-.65-.92Z"/>
      <path class="cls-1" d="m54.13,48.05c-1.73-1.72-3.47-3.44-5.2-5.16-5.57-5.53-11.15-11.05-16.7-16.6-4.37-4.38-8.69-8.81-13.06-13.19-3.64-3.64-7.33-7.23-10.99-10.85-.44-.44-.91-.86-1.3-1.34-.42-.51-.28-.81.38-.88.33-.04.66-.02,1-.02,6.48,0,12.96.02,19.45-.02.82,0,1.39.25,1.96.82,6.39,6.41,12.81,12.8,19.2,19.21,1.7,1.71,3.31,3.5,4.99,5.22.5.51.7,1.05.7,1.77-.01,6.4,0,12.79.01,19.19,0,.57-.06,1.13-.1,1.7-.11.05-.22.09-.33.14Z"/>
      <path class="cls-1" d="m28.93,112.72c.42.38.87.73,1.27,1.13,2.92,2.9,5.83,5.8,8.75,8.7,7.44,7.42,14.89,14.84,22.33,22.26,4.68,4.66,9.36,9.32,14.03,14,.4.4.68.9,1.01,1.36-.59.09-1.18.26-1.77.25-5.86-.01-11.72-.05-17.58-.08-.79,0-1.59.06-2.36-.06-.49-.08-1.02-.34-1.37-.68-.92-.89-1.72-1.9-2.63-2.81-3.21-3.19-6.45-6.35-9.65-9.54-3.88-3.87-7.73-7.77-11.61-11.63-.7-.7-.93-1.47-.92-2.45.09-6.35.13-12.71.18-19.06,0-.41,0-.82,0-1.23.11-.05.22-.1.33-.16Z"/>
      <path class="cls-1" d="m234.72,80.42c0,1.16,0,2.31,0,3.47,0,3.24,0,6.48,0,9.72,0,1.4-.06,1.44-1.49,1.43-1.91-.02-3.82-.03-5.73-.04-1.22,0-1.31-.06-1.31-1.23-.02-9.09-.03-18.18-.03-27.28,0-1.52.04-1.53,1.52-1.51,1.66.02,3.32.07,4.98.06.6,0,.98.23,1.35.69,2.45,2.97,4.94,5.9,7.4,8.86,1.27,1.53,2.5,3.1,3.75,4.64.2.25.44.48.85.92.07-.57.14-.9.14-1.24.04-4.03.05-8.05.1-12.08.03-2.15.13-1.79,1.88-1.83,1.91-.04,3.82.02,5.73-.02.84-.02,1.02.31,1.02,1.11-.04,9.22-.04,18.44-.05,27.65,0,.25,0,.5,0,.75,0,.47-.16.62-.68.6-1.87-.07-3.74-.09-5.6-.1-.67,0-1.19-.22-1.62-.74-2.58-3.09-5.16-6.18-7.75-9.26-1.33-1.58-2.68-3.13-4.02-4.69l-.42.12Z"/>
      <path class="cls-1" d="m275.89,95.59c-3.87.21-7.16-.6-10.12-2.59-5.41-3.63-7.4-8.82-6.77-15.15.32-3.17,1.75-5.99,3.85-8.21,2.75-2.9,6.25-4.86,10.39-5.05,2.72-.13,5.47-.34,8.14.61,3.32,1.19,6.28,2.91,8.28,5.89,4.91,7.34,3.53,17.63-4.87,22.49-2.81,1.63-5.89,2.45-8.88,2.01Zm7.64-16.25c-.1-1.75-.64-4.1-2.84-5.88-3.6-2.93-8.62-2.45-11.31,1.33-2.18,3.07-2.09,6.33-.5,9.66,1.09,2.29,3.05,3.35,5.36,3.81,4.39.87,9.4-2.2,9.28-8.92Z"/>
      <path class="cls-1" d="m111.66,95.77c-4.43-.09-8.41-1.35-11.72-4.3-3.7-3.29-5.42-7.52-5.08-12.45.35-4.97,2.61-8.97,6.82-11.71,2.46-1.6,5.15-2.73,8.16-2.72,1.98,0,4.03-.12,5.94.31,6.93,1.55,12.35,6.95,12.44,14.6.04,3.23-.58,6.21-2.26,8.91-.86,1.38-1.97,2.56-3.33,3.61-1.97,1.53-4.11,2.49-6.45,3.08-1.47.37-3.02.45-4.53.67Zm-7.95-16.66c-.02,3.33.68,5.52,2.4,7.15,4.07,3.85,10.13,2,12.11-1.24,1.78-2.94,1.79-8.81-1.2-11.37-2.58-2.21-5.45-2.74-8.21-1.56-3.41,1.47-5.14,4.2-5.1,7.02Z"/>
      <path class="cls-1" d="m54.38,56.18c.08.65.16,1.04.16,1.43.06,6.4.09,12.79.16,19.19.01,1.16-.3,2.07-1.14,2.89-2.56,2.48-5.1,5-7.62,7.52-2.61,2.61-5.2,5.24-7.81,7.85-2.79,2.79-5.59,5.57-8.39,8.35-.15.15-.28.33-.45.42-.2.1-.45.18-.66.14-.08-.01-.16-.35-.16-.54-.01-.95,0-1.91,0-2.86-.02-5.4.05-10.8-.12-16.2-.07-2.06.96-3.32,2.22-4.6,1.66-1.67,3.3-3.36,4.98-5.01.8-.78,1.68-1.47,2.48-2.26,2.01-1.98,3.99-3.98,5.98-5.98,3.07-3.08,6.13-6.17,9.19-9.25.31-.31.65-.6,1.17-1.09Z"/>
      <path class="cls-1" d="m163.87,79.85c0-4.48,0-8.97,0-13.45,0-1.32.07-1.41,1.43-1.41,5.23-.01,10.47,0,15.7.01,1.87,0,3.74.07,5.61.04.84-.01,1.1.35,1.09,1.12-.02,1.45-.05,2.91.02,4.36.04.88-.32,1.04-1.09,1.03-4.11-.03-8.23-.01-12.34-.01-.25,0-.5,0-.75,0-.75-.01-1.03.39-1.01,1.1.02.95.05,1.91,0,2.86-.04.84.34,1.08,1.12,1.08,2.78-.02,5.57,0,8.35,0,1.04,0,2.08,0,3.12,0,.53,0,.84.15.82.79-.03,1.49.03,2.99.03,4.48,0,1.17-.02,1.21-1.16,1.23-2.24.03-4.49.01-6.73.02-1.5,0-2.99.06-4.49.05-.78,0-1.13.28-1.08,1.11.06.99-.02,1.99.01,2.99.03,1.09.18,1.21,1.25,1.21,4.28.01,8.56.03,12.83.04.12,0,.25,0,.37,0,1.29.03,1.29.03,1.28,1.34,0,1.49-.01,2.99,0,4.48,0,.53-.09.85-.76.81-1.49-.09-2.98-.14-4.47-.15-5.57-.02-11.13,0-16.7-.03-2.46-.02-2.42-.06-2.41-2.53.03-4.19,0-8.38,0-12.58h-.05Z"/>
      <path class="cls-1" d="m188.98,94.98c.83-1.91,1.61-3.72,2.42-5.53,3.1-6.98,6.21-13.95,9.31-20.93.37-.83.69-1.69,1.01-2.55.25-.68.72-.97,1.43-.97,2.37,0,4.74-.02,7.1.04.31,0,.75.35.89.65,2.1,4.69,4.15,9.42,6.24,14.11,1.98,4.43,3.99,8.85,5.99,13.27.14.3.27.61.41.91.27.6.16.99-.57.98-2.53,0-5.07-.01-7.6-.03-.65,0-.91-.43-1.13-.98-.51-1.31-1.11-2.59-1.61-3.91-.25-.65-.66-.87-1.33-.87-3.28.02-6.57,0-9.85.02-1.42.01-1.59.2-2.06,1.49-.43,1.17-.91,2.32-1.34,3.48-.17.46-.39.8-.96.79-2.73-.01-5.45,0-8.34,0Zm17.38-12.26s0,0,0,0c.87,0,1.74.02,2.61,0,.48-.01.82-.22.6-.79-.91-2.35-1.83-4.7-2.77-7.04-.06-.16-.37-.38-.44-.34-.18.1-.34.31-.43.5-.21.49-.35,1.01-.55,1.51-.65,1.7-1.35,3.38-1.96,5.09-.34.95-.21,1.06.81,1.07.7,0,1.41,0,2.11,0Z"/>
      <path class="cls-1" d="m160.52,70.12c-1.52,1.42-2.86,2.71-4.26,3.93-1.03.89-1.18.86-2.27.1-.48-.33-.95-.67-1.39-1.05-2.08-1.78-6.07-2.22-9.09-.28-2.52,1.62-3.63,3.69-3.68,6.57-.03,1.81.04,3.57.99,5.18,1.48,2.5,3.8,3.6,6.58,3.9,2.24.24,4.14-.59,5.88-1.93,1.88-1.45,2.08-1.41,3.82.27.83.81,1.7,1.58,2.56,2.36.87.77.89,1.03.07,1.77-3.09,2.8-6.67,4.34-10.88,4.6-4.93.31-9.28-1.01-13.06-4.14-.78-.64-1.3-1.59-1.95-2.4-3.93-4.87-3.27-13.73-.08-17.92,3.04-4,7.01-6.06,11.93-6.49,3.64-.32,7.14.16,10.39,1.89,1.73.92,3.12,2.28,4.44,3.65Z"/>
      <path class="cls-1" d="m60.29,72.25v-39.93c.91.12,1.38.73,1.88,1.23,2.12,2.1,4.2,4.24,6.32,6.34,3.8,3.77,7.61,7.52,11.41,11.28.86.85.84,1.24.01,2.07-3.02,3.03-6.02,6.08-9.04,9.1-3.11,3.12-6.24,6.22-9.36,9.32-.28.28-.63.5-.94.74-.09-.05-.18-.1-.27-.15Zm4.16-24.54c0,1.56,1,2.71,2.33,2.67,1.4-.04,2.57-1.23,2.61-2.67.03-1.13-1.23-2.33-2.46-2.35-1.46-.02-2.48.95-2.48,2.35Z"/>
      <path class="cls-1" d="m22.5,88.51c.19,13.32-.1,26.56,0,39.8l-.25.13c-.27-.27-.54-.53-.81-.8-2.35-2.34-4.7-4.68-7.04-7.04-3.77-3.79-7.53-7.58-11.29-11.38-.85-.86-.81-.83.01-1.66,3-2.99,5.96-6.01,8.96-9,3.32-3.31,6.66-6.59,9.99-9.89.05-.05.15-.06.45-.17Zm-6.56,18.18c1.41.02,2.66-1.15,2.72-2.54.06-1.39-1.29-2.66-2.88-2.68-1.14-.02-2.4,1.31-2.42,2.56-.02,1.34,1.23,2.64,2.58,2.66Z"/>
      <path class="cls-1" d="m171.61,62.62c1.72-2.02,3.3-3.93,4.94-5.79.3-.35.8-.72,1.22-.73,2.32-.09,4.65-.08,6.97-.09.23,0,.46.13.89.26-.38.42-.63.78-.96,1.05-2.23,1.78-4.47,3.55-6.72,5.31-.22.17-.52.33-.78.32-1.66,0-3.31-.06-4.97-.11-.18,0-.37-.13-.58-.21Z"/>
    </g>
  </g>
</svg>